# xmcd
#
# Track frame offsets: 
#        150
#        23207
#        42377
#        60322
#        77897
#        98870
#        117712
#        134315
#        152322
#        172035
#        193162
#        208807
#        233732
#        253142
#        270847
#        290162
#
# Disc length: 4430 seconds
#
# Revision: 72
# Processed by: cddbd v1.5.2PL0 Copyright (c) Steve Scherf et al.
# Submitted via: ExactAudioCopy v1.3
#
DISCID=e7114c10
DTITLE=Joe Cocker - The Best Of
DYEAR=1992
DGENRE=Rock
TTITLE0=Unchain My Heart (90's Version)
TTITLE1=You Can Leave Your Hat On
TTITLE2=When The Night Comes
TTITLE3=Up Where We Belong (Duet With Jennifer Warnes)
TTITLE4=Now That The Magic Has Gone
TTITLE5=Don't You Love Me Anymore
TTITLE6=I Can Hear The River
TTITLE7=Sorry Seems To Be The Hardest Word
TTITLE8=Shelter Me
TTITLE9=Feels Like Forever
TTITLE10=Night Calls
TTITLE11=Don't Let The Sun Go Down On Me
TTITLE12=Now That You're Gone
TTITLE13=Civilized Man
TTITLE14=When A Woman Cries
TTITLE15=With A Little Help From My Friends (Live)
EXTD=YEAR: 1992
EXTT0=
EXTT1=
EXTT2=
EXTT3=
EXTT4=
EXTT5=
EXTT6=
EXTT7=
EXTT8=
EXTT9=
EXTT10=
EXTT11=
EXTT12=
EXTT13=
EXTT14=
EXTT15=
PLAYORDER=
